<?xml version="1.0" encoding="UTF-8" standalone="no"?>
<!-- Created with Inkscape (http://www.inkscape.org/) -->
<svg
   xmlns:dc="http://purl.org/dc/elements/1.1/"
   xmlns:cc="http://creativecommons.org/ns#"
   xmlns:rdf="http://www.w3.org/1999/02/22-rdf-syntax-ns#"
   xmlns:svg="http://www.w3.org/2000/svg"
   xmlns="http://www.w3.org/2000/svg"
   xmlns:sodipodi="http://sodipodi.sourceforge.net/DTD/sodipodi-0.dtd"
   xmlns:inkscape="http://www.inkscape.org/namespaces/inkscape"
   width="990"
   height="765"
   id="svg2"
   sodipodi:version="0.32"
   inkscape:version="0.46"
   sodipodi:docname="valentine kitten.svg"
   inkscape:output_extension="org.inkscape.output.svg.inkscape"
   version="1.0">
  <defs
     id="defs4">
    <inkscape:perspective
       sodipodi:type="inkscape:persp3d"
       inkscape:vp_x="0 : 526.18109 : 1"
       inkscape:vp_y="0 : 1000 : 0"
       inkscape:vp_z="744.09448 : 526.18109 : 1"
       inkscape:persp3d-origin="372.04724 : 350.78739 : 1"
       id="perspective10" />
    <inkscape:perspective
       id="perspective2447"
       inkscape:persp3d-origin="372.04724 : 350.78739 : 1"
       inkscape:vp_z="744.09448 : 526.18109 : 1"
       inkscape:vp_y="0 : 1000 : 0"
       inkscape:vp_x="0 : 526.18109 : 1"
       sodipodi:type="inkscape:persp3d" />
    <inkscape:perspective
       id="perspective2626"
       inkscape:persp3d-origin="372.04724 : 350.78739 : 1"
       inkscape:vp_z="744.09448 : 526.18109 : 1"
       inkscape:vp_y="0 : 1000 : 0"
       inkscape:vp_x="0 : 526.18109 : 1"
       sodipodi:type="inkscape:persp3d" />
  </defs>
  <sodipodi:namedview
     id="base"
     pagecolor="#ffffff"
     bordercolor="#666666"
     borderopacity="1.0"
     gridtolerance="10000"
     guidetolerance="10"
     objecttolerance="10"
     inkscape:pageopacity="0.0"
     inkscape:pageshadow="2"
     inkscape:zoom="0.8248366"
     inkscape:cx="495"
     inkscape:cy="382.5"
     inkscape:document-units="in"
     inkscape:current-layer="layer2"
     showgrid="false"
     inkscape:window-width="1600"
     inkscape:window-height="838"
     inkscape:window-x="0"
     inkscape:window-y="24"
     showguides="true"
     inkscape:guide-bbox="true"
     units="in">
    <sodipodi:guide
       orientation="1,0"
       position="-1245.5181,442.44681"
       id="guide2661" />
  </sodipodi:namedview>
  <metadata
     id="metadata7">
    <rdf:RDF>
      <cc:Work
         rdf:about="">
        <dc:format>image/svg+xml</dc:format>
        <dc:type
           rdf:resource="http://purl.org/dc/dcmitype/StillImage" />
      </cc:Work>
    </rdf:RDF>
  </metadata>
  <g
     inkscape:label="Layer 1"
     inkscape:groupmode="layer"
     id="layer1"
     style="opacity:1" />
  <g
     inkscape:groupmode="layer"
     id="layer2"
     inkscape:label="kitten"
     style="opacity:1">
    <path
       style="opacity:1;fill:#ff2a2a;fill-rule:evenodd;stroke:#000000;stroke-width:0.62405372000000003px;stroke-linecap:butt;stroke-linejoin:miter;stroke-opacity:1"
       d="M 677.01997,166.85822 C 675.65989,166.89108 674.23959,167.2979 672.76997,168.10822 C 638.03872,187.25846 634.49172,164.72318 572.08247,169.63947 C 507.93869,174.69241 520.28649,211.57495 493.26997,223.95197 C 484.74985,227.85527 477.14515,205.61608 468.39497,211.20197 C 448.46025,223.92778 448.00764,251.42329 457.14497,274.92072 C 465.86664,297.34929 478.48777,320.70653 483.80122,336.63947 C 487.51064,347.76255 496.49133,360.96391 503.95747,369.48322 C 506.56241,372.4556 517.35502,375.66933 514.01997,377.54572 C 508.02824,380.91683 505.45573,384.09548 505.14497,392.29572 C 504.98052,396.63509 511.73742,405.15282 508.08247,406.38947 C 500.54147,408.94098 483.62938,394.65278 476.11372,390.29572 C 466.98335,385.00256 449.51598,355.8431 441.14497,359.42072 C 417.58439,369.4901 418.23829,440.40428 439.95747,455.35822 C 444.78153,458.67961 451.05218,446.74629 456.55122,445.29572 C 466.77105,442.59985 486.62689,436.10074 491.51997,446.60822 C 492.60066,448.92893 487.53129,451.39797 487.36372,454.01447 C 485.98315,475.572 496.70008,509.30556 513.42622,519.73322 C 517.83011,522.47874 525.23068,518.77733 530.01997,517.04572 C 535.9271,514.90995 543.27792,504.86726 548.39497,506.29572 C 553.512,507.72415 556.88857,514.82714 556.67622,519.73322 C 555.71393,541.96653 531.46626,565.77221 514.01997,576.04572 C 507.52386,579.87102 495.51574,573.79653 489.73872,578.73322 C 476.20419,590.29897 475.99711,610.28238 482.61372,625.70197 C 484.86364,630.94526 491.08166,636.8151 496.23872,637.76447 C 513.73942,640.98619 534.37339,642.23533 551.92622,637.76447 C 555.45494,636.86568 560.29993,633.96821 562.01997,630.38947 C 562.52969,629.32903 561.26583,627.21185 562.01997,626.35822 C 563.15123,625.07771 565.83539,626.89342 567.36372,626.35822 C 571.27319,624.98922 574.97786,616.13257 578.61372,617.63947 C 582.4457,619.22763 582.62914,629.26613 588.67622,632.38947 C 593.64823,634.95753 616.6981,633.07514 622.20747,632.98322 C 647.67845,632.55823 654.91956,630.35024 678.14497,630.38947 C 687.03251,630.4045 700.43048,638.27674 709.30122,638.92072 C 723.17406,639.92783 733.97902,634.27168 746.30122,628.35822 C 753.69943,624.80781 761.95814,614.32345 769.98872,614.29572 C 775.79239,614.27569 781.45179,623.16393 787.17622,624.32697 C 806.50848,628.25474 826.5631,618.76993 839.89497,605.57697 C 857.87529,587.78394 869.06632,563.21974 874.86372,538.51447 C 878.92543,521.20582 882.84332,497.37819 882.55122,479.48322 C 882.31734,465.16065 881.00267,445.1981 874.86372,432.54572 C 853.7176,388.96355 815.57725,379.67343 817.98872,377.54572 C 841.64562,356.67253 870.064,333.46741 872.48872,331.95197 C 872.48871,331.95198 789.38355,196.11024 779.11372,187.07697 C 778.03113,186.12473 708.47374,244.51226 706.01997,247.42072 C 705.65476,247.85363 697.42119,166.36528 677.01997,166.85822 z M 688.95747,201.76447 C 693.50726,220.68193 694.14126,228.53017 694.14497,248.10822 C 694.14644,255.96087 692.27955,272.8323 688.80122,273.60822 C 686.3097,274.16401 687.5594,256.16156 684.08247,250.10822 C 676.48842,236.88702 664.14742,227.73099 650.30122,225.95197 C 642.98516,225.01196 627.7333,230.60278 626.01997,229.98322 C 622.47008,228.6995 633.68269,213.61535 639.05122,208.54572 C 649.68043,198.50833 661.1983,174.10918 673.98872,174.95197 C 683.82403,175.60004 686.65315,192.18342 688.95747,201.76447 z M 543.98872,184.57697 C 544.70323,185.30896 544.89698,188.22582 545.14497,188.26447 C 545.38957,188.30258 546.39414,185.67947 547.20747,185.13947 C 550.12725,183.20092 552.63653,185.52171 552.17622,188.45197 C 551.52561,192.5937 544.83019,198.83787 543.95747,198.76447 C 543.32461,198.71125 538.87178,190.79129 538.58247,186.10822 C 538.343,182.232 541.90442,182.4417 543.98872,184.57697 z M 591.58247,189.10822 C 591.74259,190.74435 591.05514,194.63207 591.42622,194.88947 C 591.78589,195.13897 594.75712,193.19533 597.58247,192.48322 C 601.97932,191.37503 607.20454,195.07768 602.30122,200.95197 C 598.61332,205.37017 584.50227,207.95435 583.92622,207.60822 C 582.58883,206.80462 579.21903,192.88288 582.30122,186.67072 C 584.99157,181.24833 591.06748,183.84594 591.58247,189.10822 z M 778.55122,204.26447 C 791.18452,204.14035 860.63398,327.20049 858.55122,328.98322 C 824.23388,358.35712 783.79157,389.6403 753.39497,411.07697 C 746.96652,415.61051 735.17018,407.96567 727.33247,408.38947 C 712.71648,409.17977 698.10586,413.58385 683.48872,411.07697 C 675.12219,409.64208 658.6575,402.34329 657.42622,398.98322 C 657.3365,398.73824 677.55975,378.4563 684.67622,368.13947 C 692.33065,357.04276 701.90295,341.20555 706.01997,327.92072 C 710.41363,313.74331 711.92586,293.30348 711.92622,278.29572 C 711.92639,272.0624 708.73291,261.63637 713.11372,258.17072 C 735.21668,240.68512 758.63912,204.46011 778.55122,204.26447 z M 471.58247,219.60822 C 478.01047,219.92787 487.3212,231.07376 485.58247,238.04572 C 483.20266,247.58828 479.12837,255.09206 477.89497,262.85822 C 476.13343,273.9496 477.19978,301.00739 476.36372,300.73322 C 471.86209,299.25703 468.73713,285.71909 465.51997,279.60822 C 460.98798,270.99984 458.58008,261.73128 459.61372,247.70197 C 460.12058,240.82233 462.39474,219.15133 471.58247,219.60822 z M 537.83247,233.82697 C 536.63903,239.86986 535.11082,245.68991 533.80122,246.42072 C 532.60167,247.09012 523.21876,243.11023 521.39497,240.01447 C 519.31995,236.49228 523.66529,234.29368 527.01997,234.57697 C 528.13599,234.67122 529.8463,236.91664 530.14497,236.76447 C 530.46228,236.60282 530.41106,233.70828 531.01997,232.60822 C 533.13499,228.78723 538.82652,228.79371 537.83247,233.82697 z M 592.01997,234.85822 C 593.43731,249.10211 582.83118,263.39826 582.48872,262.85822 C 579.37493,257.94797 566.47406,256.08744 562.36372,248.48322 C 558.9764,242.21661 566.5227,237.36852 572.36372,238.92072 C 574.226,239.4156 576.91519,243.85132 577.42622,243.60822 C 577.98453,243.34263 578.17846,237.71618 579.33247,235.70197 C 582.27377,230.56823 591.30643,227.68734 592.01997,234.85822 z M 604.14497,258.57697 C 607.4107,258.56607 610.49203,259.57135 612.67622,262.17072 C 614.16536,263.9429 613.00776,267.11444 611.20747,266.88947 C 608.50351,266.55158 606.54998,263.17701 603.17622,262.85822 C 601.46117,262.69618 598.94149,263.08796 597.55122,264.20197 C 594.95126,266.28529 593.41627,272.6514 590.73872,270.88947 C 585.16784,267.22363 595.19685,260.32451 599.64497,259.17072 C 601.13577,258.78402 602.66055,258.58192 604.14497,258.57697 z M 639.86372,269.60822 C 643.934,269.38605 645.94405,273.61079 646.89497,277.13947 C 647.48523,279.32973 645.84578,284.61172 646.30122,285.01447 C 646.72327,285.38769 650.62507,282.21816 652.55122,282.26447 C 655.28633,282.33022 657.86449,283.62228 659.30122,285.85822 C 660.9864,288.48085 661.29472,292.48471 659.45747,294.54572 C 655.48027,299.00732 648.23351,298.96377 642.51997,300.07697 C 640.66452,300.43846 637.18993,301.79774 636.05122,301.57697 C 636.00895,301.56878 636.01388,301.66554 635.98872,301.70197 C 635.50687,302.40023 635.28906,295.57583 635.23872,292.79572 C 635.13419,287.02483 630.50926,270.11882 639.86372,269.60822 z M 519.45747,279.42072 C 520.88708,279.30321 522.35765,279.56828 523.80122,280.29572 C 525.02798,280.91392 526.52054,284.41729 525.30122,284.98322 C 522.51494,286.27643 522.7155,281.62876 515.20747,285.32697 C 510.25822,287.7648 511.04821,296.31802 507.51997,293.04572 C 505.04549,290.75076 510.16352,285.07937 512.83247,282.63947 C 514.78516,280.85436 517.07479,279.61657 519.45747,279.42072 z M 536.30122,290.32697 C 537.50737,293.7595 534.4572,297.75598 533.08247,301.17072 C 532.62701,302.30209 532.23892,304.94075 531.58247,305.17072 C 530.61112,305.51101 528.82883,304.08747 527.61372,303.57697 C 524.52807,302.28062 520.89494,301.67787 519.20747,298.76447 C 517.06624,295.06766 521.79744,293.09122 524.83247,293.35822 C 525.94803,293.45636 527.6588,295.66664 527.95747,295.51447 C 528.27481,295.35281 528.17425,292.43012 528.83247,291.35822 C 530.62104,288.44558 535.06111,286.79783 536.30122,290.32697 z M 578.61372,299.67072 C 579.52937,300.48637 579.69567,303.94449 580.01997,303.98322 C 580.35077,304.02273 581.77899,300.88264 582.86372,300.20197 C 586.13611,298.14854 590.08571,300.05108 589.36372,304.04572 C 588.64418,308.02684 584.18622,310.43634 581.23872,313.17072 C 580.29425,314.04687 578.62775,316.60661 578.01997,316.38947 C 576.96338,316.012 576.3017,313.45981 575.61372,312.10822 C 573.89032,308.72249 571.09085,305.50192 571.33247,301.57697 C 571.62325,296.85336 575.87223,297.22865 578.61372,299.67072 z M 668.76997,320.95197 C 669.68126,321.77293 669.85192,325.1945 670.17622,325.23322 C 670.50698,325.27272 671.92454,322.2272 672.98872,321.51447 C 673.99451,320.84081 675.60409,320.31225 676.76997,320.63947 C 678.86424,321.22727 680.07119,323.21215 679.51997,325.32697 C 678.49439,329.26175 674.34812,331.74843 671.39497,334.48322 C 670.44977,335.35856 668.74715,337.89028 668.14497,337.67072 C 667.12267,337.29797 666.45401,334.73328 665.76997,333.38947 C 664.04659,330.00378 661.25225,326.78372 661.48872,322.85822 C 661.77363,318.12872 666.03038,318.48393 668.76997,320.95197 z M 601.42622,319.54572 C 603.78791,323.60948 601.17238,329.15283 601.11372,333.60822 C 600.99831,342.37761 604.288,349.38863 610.58247,354.42072 C 612.30071,355.79436 606.07847,360.53113 604.67622,358.76447 C 597.05861,349.16719 595.15379,343.47894 594.61372,335.63947 C 594.342,331.69553 594.97156,327.01991 596.39497,323.23322 C 597.4103,320.53215 600.52408,317.99341 601.42622,319.54572 z M 506.83247,323.10822 C 508.49289,326.40708 508.82982,333.48367 506.76997,335.23322 C 505.18605,336.57855 500.20025,334.26436 498.17622,331.88947 C 496.45034,329.8644 497.97598,327.30207 500.55122,326.98322 C 501.244,326.89743 502.65598,328.38442 502.80122,328.23322 C 502.96646,328.06121 502.31044,325.82019 502.58247,324.92072 C 503.27968,322.61534 505.61812,320.6956 506.83247,323.10822 z M 626.30122,334.95197 C 626.99287,337.76717 628.31977,342.48153 626.61372,344.67072 C 625.96436,345.50403 622.94118,346.62731 623.33247,345.60822 C 624.02262,343.81076 624.68741,340.21819 624.30122,337.54572 C 623.85551,334.46146 621.97505,328.49924 623.33247,328.23322 C 624.68116,327.9689 625.75257,332.71883 626.30122,334.95197 z M 527.36372,340.32697 C 531.49957,340.09354 524.72646,346.87976 527.05122,357.07697 C 529.91954,369.65848 540.28124,373.57578 538.61372,375.54572 C 537.21295,377.2005 532.17207,376.37847 530.30122,374.51447 C 525.40331,369.63452 523.44675,360.97152 522.89497,353.73322 C 522.56338,349.38311 522.72426,340.58882 527.36372,340.32697 z M 546.89497,342.67072 C 553.64045,344.23412 555.58685,356.32063 554.30122,363.29572 C 554.12374,364.25854 553.49412,370.82091 551.64497,370.82697 C 550.05852,370.83218 551.43827,358.38462 549.86372,352.38947 C 549.0868,349.43139 545.53277,342.355 546.89497,342.67072 z M 820.30122,406.82697 C 817.73079,409.82861 813.56648,416.22709 812.89497,416.13947 C 811.71861,415.98597 810.51717,412.96768 809.55122,411.51447 C 807.08139,407.79879 803.43115,404.41438 803.17622,399.79572 C 802.89428,394.68767 807.99545,393.22342 811.48872,396.23322 C 812.57696,397.17085 813.32362,401.1195 813.70747,401.10822 C 814.10543,401.09651 815.25281,396.93867 816.58247,396.13947 C 826.15295,390.3871 825.44797,400.81683 820.30122,406.82697 z M 779.30122,409.92072 C 780.2424,409.84279 781.21499,409.99795 782.14497,410.42072 C 783.72813,411.14042 781.74106,414.90874 782.14497,416.76447 C 783.42923,422.66505 786.16337,428.82207 791.01997,431.20197 C 806.2358,438.65823 814.4562,440.1953 821.83247,459.01447 C 826.44516,470.78285 827.16411,483.86767 826.30122,496.60822 C 826.13309,499.08943 826.71837,504.59553 824.51997,504.63947 C 818.41672,504.76146 821.04228,488.98218 818.89497,482.51447 C 816.09749,474.08889 809.18349,457.36599 807.61372,455.35822 C 797.65255,442.61756 789.40921,434.91739 777.39497,424.82697 C 776.2331,423.85117 770.24407,420.0481 770.58247,418.45197 C 771.37223,414.72697 775.22276,410.25841 779.30122,409.92072 z M 647.08247,417.70197 C 647.69892,418.39539 647.35262,421.03191 647.58247,421.10822 C 647.81231,421.18451 649.18442,419.04986 650.05122,418.73322 C 653.07542,417.62849 654.945,419.8208 654.26997,422.48322 C 653.55745,425.29365 649.83433,426.46832 647.39497,428.07697 C 646.61774,428.5895 645.12057,430.20439 644.70747,429.98322 C 644.02588,429.61832 643.84723,427.53561 643.48872,426.48322 C 642.54075,423.70058 640.89755,420.90554 641.67622,418.07697 C 642.59675,414.73307 645.24533,415.63545 647.08247,417.70197 z M 572.61372,423.10822 C 578.6357,423.18643 572.95861,429.13369 571.51997,431.98322 C 563.22155,448.41993 562.66395,466.84905 564.14497,479.26447 C 565.62603,491.6799 570.67369,495.68498 572.20747,498.13947 C 572.93913,499.31033 573.70822,495.31141 576.83247,495.32697 C 577.67952,495.33119 579.04209,497.56994 579.42622,497.10822 C 579.79023,496.67069 579.11957,494.4073 579.45747,493.45197 C 580.47372,490.57876 583.7377,489.50366 584.73872,492.29572 C 586.13666,496.19487 586.19493,503.89974 583.95747,505.63947 C 582.04183,507.12897 577.09586,502.47657 573.83247,500.67072 C 573.54053,500.50917 574.21573,503.06939 573.30122,504.42072 C 557.38973,527.93237 544.35424,490.46259 543.39497,477.92072 C 542.43568,465.37886 549.24696,456.04026 553.76997,446.73322 C 556.81834,440.46052 565.36809,423.01412 572.61372,423.10822 z M 838.33247,423.17072 C 840.04676,423.05945 842.13317,425.22761 843.05122,427.26447 C 843.82561,428.98265 843.70584,434.21233 844.11372,434.35822 C 844.50747,434.49907 846.74284,429.95482 848.23872,429.20197 C 853.70926,426.44875 857.01512,431.78578 855.73872,436.82697 C 854.33588,442.36755 848.34557,445.50206 844.08247,449.17072 C 842.75974,450.30901 840.18844,453.75172 839.51997,453.32697 C 838.22532,452.50434 837.87814,448.25724 837.26997,446.04572 C 835.67978,440.26317 833.02829,434.58287 833.70747,428.48322 C 834.09756,424.98006 836.20639,423.30872 838.33247,423.17072 z M 530.42622,449.26447 C 526.00232,452.74446 514.19474,459.30362 507.14497,460.95197 C 502.2197,462.10361 493.36986,454.1255 494.67622,452.76447 C 498.206,449.08689 508.33255,453.25053 516.76997,449.54572 C 529.20779,444.08431 544.3608,428.62841 549.89497,429.85822 C 553.01893,430.55243 536.98036,444.10877 530.42622,449.26447 z M 628.98872,444.54572 C 629.52115,451.73586 624.43012,458.41989 621.39497,464.95197 C 620.44271,467.00135 619.15222,472.26808 618.17622,472.26447 C 616.7032,472.25902 614.82373,468.21877 613.42622,466.42072 C 609.67091,461.58915 604.96259,457.26011 603.76997,451.07697 C 602.62361,445.13364 607.26322,439.41839 612.86372,443.51447 C 614.34075,444.59473 615.92258,450.10612 616.36372,449.98322 C 616.83478,449.85196 617.65733,443.78065 618.80122,441.92072 C 622.34669,436.15593 628.51699,438.17538 628.98872,444.54572 z M 708.33247,443.73322 C 709.61552,444.85813 710.31623,449.53686 710.76997,449.54572 C 711.23661,449.55483 712.89846,445.06936 714.30122,443.92072 C 718.53417,440.4546 724.6753,442.71835 723.80122,448.35822 C 722.91967,454.04633 717.27203,458.07567 713.45747,462.32697 C 712.23775,463.68636 710.19052,467.43245 709.30122,467.23322 C 707.84336,466.90659 706.60608,463.37588 705.51997,461.60822 C 702.74558,457.09287 698.49965,452.93935 698.42622,447.45197 C 698.34248,441.19387 704.37004,440.25917 708.33247,443.73322 z M 796.23872,452.98322 C 797.7203,453.01995 801.40937,446.76598 802.92622,454.38947 C 803.4923,457.23452 798.48958,458.37963 796.05122,459.98322 C 795.27333,460.49482 793.77443,462.08084 793.36372,461.85822 C 792.68904,461.49256 792.50137,459.40877 792.14497,458.35822 C 791.20106,455.57601 788.25074,452.06568 790.30122,449.98322 C 795.37298,444.83236 794.99012,452.95226 796.23872,452.98322 z M 662.01997,474.17072 C 662.76994,477.13234 659.87973,480.13581 658.45747,482.88947 C 658.00339,483.7686 657.43824,486.04623 656.95747,486.04572 C 656.15171,486.04487 655.16723,484.38456 654.36372,483.63947 C 652.2961,481.72222 649.80316,480.12775 649.11372,477.38947 C 648.32243,474.24668 650.98575,472.80115 653.67622,474.01447 C 654.47321,474.37389 655.35498,476.73124 655.58247,476.67072 C 655.82128,476.6072 656.10613,474.03858 656.70747,473.26447 C 658.63945,470.7774 661.29377,471.30293 662.01997,474.17072 z M 839.73872,476.17072 C 840.26928,476.93463 840.00888,479.4694 840.23872,479.54572 C 840.46853,479.62205 841.84347,477.49532 842.70747,477.17072 C 845.69618,476.04788 847.99375,478.40703 846.92622,480.95197 C 845.51849,484.30794 839.76327,489.44229 837.33247,488.42072 C 834.80883,487.36013 833.70331,480.50825 834.30122,476.54572 C 834.81294,473.1544 838.08403,473.78824 839.73872,476.17072 z M 878.94417,474.70197 L 877.19883,503.8806 C 876.70811,512.08442 862.06991,495.22896 858.64497,487.42072 C 855.83843,481.02232 861.35011,477.31315 867.01997,480.10822 C 868.8066,480.98897 871.58186,485.87285 872.05122,485.73322 C 872.51844,485.59424 872.20203,480.08694 873.14497,478.38947 C 874.20748,476.47675 879.05113,472.91392 878.94417,474.70197 z M 744.76997,482.88947 C 745.5316,484.5586 744.69439,489.50917 745.11372,489.70197 C 745.5273,489.89217 748.48074,485.97031 750.14497,485.42072 C 755.67422,483.59474 760.38128,489.17103 757.36372,493.63947 C 753.35478,499.57595 744.74906,505.38403 738.05122,506.79572 C 736.62354,507.09663 736.87412,501.83724 736.45747,499.63947 C 735.39558,494.03821 732.82338,488.28823 734.51997,482.67072 C 736.36242,476.57028 742.50127,477.91754 744.76997,482.88947 z M 690.11372,482.38947 C 695.95052,482.29212 699.85413,483.0143 699.64497,484.23322 C 699.29694,486.26163 686.77964,486.74786 670.30122,491.82697 C 648.88049,498.4294 641.01081,517.88508 634.26997,537.35822 C 632.67445,541.96753 629.20648,565.80411 628.08247,556.26447 C 624.81494,528.5325 637.34326,510.12307 646.08247,498.57697 C 655.00073,486.79434 677.27277,482.60364 690.11372,482.38947 z M 836.61372,525.20197 C 839.43307,525.03622 842.3862,527.80335 843.39497,530.45197 C 844.2459,532.68623 842.76051,539.58835 843.36372,539.76447 C 844.00816,539.95262 848.87518,534.0829 851.45747,532.95197 C 853.8981,531.88303 857.28965,531.42558 859.48872,532.32697 C 863.69814,534.05241 863.9153,539.4441 861.86372,542.79572 C 857.09319,550.58916 847.42185,554.2994 839.67622,559.04572 C 837.22269,560.54919 831.12362,565.85449 831.11372,564.57697 C 831.02483,552.992 825.22263,542.53949 827.70747,532.17072 C 828.82703,527.49896 833.05681,525.41107 836.61372,525.20197 z M 791.30122,530.48322 C 791.97448,531.52946 791.66659,535.00352 791.95747,535.10822 C 792.24295,535.21097 793.9366,532.34137 795.01997,531.88947 C 798.67239,530.36596 801.45808,533.4429 800.33247,537.01447 C 799.17765,540.67873 794.79788,542.41024 791.70747,544.60822 C 790.73113,545.30262 788.42903,547.77236 788.33247,547.17072 C 787.38877,541.29073 783.85655,536.61418 784.51997,530.98322 C 785.06874,526.32545 789.40154,527.53113 791.30122,530.48322 z M 730.89497,537.04572 C 731.22885,545.2025 725.08156,552.47282 721.33247,559.70197 C 720.15887,561.96492 718.36718,567.70439 717.36372,567.82697 C 716.71277,567.90646 713.65893,562.89618 712.14497,560.73322 C 708.06749,554.90786 702.89144,549.57878 701.76997,542.35822 C 700.68529,535.37448 706.35214,529.39937 712.48872,534.45197 C 714.13579,535.80809 715.69502,542.27516 716.20747,542.17072 C 716.74801,542.06052 717.9459,535.19895 719.33247,533.17072 C 723.78636,526.65572 730.60263,529.90357 730.89497,537.04572 z M 571.83247,533.48322 C 572.75016,534.58593 572.73219,539.02169 573.08247,539.04572 C 573.44791,539.07082 575.25432,534.9065 576.48872,533.88947 C 580.43513,530.63801 584.36227,533.66544 583.36372,538.35822 C 582.25582,543.56492 577.27083,547.16927 573.73872,551.10822 C 572.63235,552.34199 570.61515,555.80042 569.92622,555.57697 C 568.86191,555.23175 568.29024,551.77696 567.64497,550.13947 C 565.9087,545.73333 563.21916,541.48366 563.67622,536.63947 C 564.15466,531.56863 568.64856,529.65739 571.83247,533.48322 z M 675.45747,558.76447 C 675.48101,564.74925 672.12667,576.51535 669.83247,577.04572 C 667.62681,577.55562 661.40138,569.11916 659.48872,563.98322 C 658.6128,561.63117 659.62437,559.50547 660.92622,558.38947 C 661.94902,557.5127 663.86629,557.87355 664.98872,558.73322 C 665.93554,559.45839 667.30282,562.89271 667.58247,562.79572 C 667.87965,562.69266 668.10174,558.7153 668.76997,557.48322 C 670.83368,553.67815 675.4412,554.62797 675.45747,558.76447 z M 628.01997,566.98322 C 634.61629,572.16246 631.24104,580.37378 635.98872,590.45197 C 636.19451,590.88884 622.04112,584.62514 616.14497,584.07697 C 610.01352,583.50693 602.94181,583.88329 596.89497,587.76447 C 596.89497,587.76447 604.14491,580.81935 606.39497,577.04572 C 611.63054,568.26496 611.13651,558.31198 613.48872,556.92072 C 618.90731,553.7158 624.24838,564.02187 628.01997,566.98322 z M 540.17622,564.38947 C 540.62046,565.26572 540.11702,568.00329 540.33247,568.10822 C 540.54171,568.2101 542.06561,566.05674 542.92622,565.79572 C 546.10376,564.83201 547.39855,567.59075 546.61372,570.20197 C 545.76448,573.0275 542.00577,574.05622 539.48872,575.57697 C 538.6997,576.05363 537.05874,577.60759 536.73872,577.32697 C 536.07838,576.74789 536.17792,574.65325 535.92622,573.45197 C 535.28219,570.37814 534.07185,567.30501 534.95747,564.29572 C 535.93461,560.97548 538.84163,561.75705 540.17622,564.38947 z M 748.55122,581.29572 C 749.22455,582.59846 748.46666,586.45951 748.83247,586.60822 C 749.20694,586.76044 751.86577,583.76018 753.33247,583.29572 C 754.71863,582.85677 756.88305,582.5566 757.98872,583.51447 C 765.63504,590.13867 752.40004,594.96832 747.36372,597.48322 C 745.98538,598.1715 743.06266,600.69929 742.58247,600.07697 C 742.05126,599.38847 741.51379,596.17977 741.14497,594.45197 C 740.20853,590.06498 737.9201,585.50135 739.45747,581.10822 C 741.16778,576.22091 746.49089,577.30948 748.55122,581.29572 z M 500.89497,594.01447 C 501.3029,595.82896 494.9724,601.85658 494.17622,607.10822 C 492.68131,616.96875 497.41473,621.16059 503.01997,627.63947 C 504.25483,629.06681 499.93714,630.32517 498.51997,629.85822 C 497.10279,629.3912 493.54211,624.83085 492.39497,621.57697 C 489.67566,613.86386 488.10201,604.20753 492.86372,597.54572 C 494.1906,595.68937 499.99332,590.0039 500.89497,594.01447 z M 562.92622,595.23322 C 563.73519,595.92037 564.13442,599.0712 564.39497,599.07697 C 564.65929,599.08283 565.51521,596.08418 566.33247,595.35822 C 569.06939,592.92704 571.94594,594.90652 571.80122,598.29572 C 571.6475,601.8959 568.22167,604.61856 566.05122,607.48322 C 565.37081,608.3813 564.19675,610.87874 563.70747,610.73322 C 562.84686,610.47723 562.15954,608.14201 561.51997,606.98322 C 559.86848,603.99108 557.47291,601.21223 557.33247,597.70197 C 557.17387,593.73782 560.32418,593.023 562.92622,595.23322 z M 599.98872,602.17072 C 602.29716,603.73165 595.88329,609.64989 595.20747,612.60822 C 593.61076,619.59769 597.92657,622.70543 602.61372,627.35822 C 603.64638,628.38327 600.01751,629.31857 598.83247,628.98322 C 597.64742,628.64781 594.66673,625.35114 593.70747,623.01447 C 591.43358,617.47538 590.13755,610.54036 594.08247,605.73322 C 596.0251,603.36596 598.94365,601.46406 599.98872,602.17072 z"
       id="path2453"
       inkscape:export-filename="C:\Users\NEIL\VALENTINEKITTEN2.png"
       inkscape:export-xdpi="90"
       inkscape:export-ydpi="90"
       sodipodi:nodetypes="cssssssssssssssssssssssssssssssssssssssssssssscsssssssscsssssscsssssscsssssssssscsssssscsssssscsssssscssssssscsssssssssscsssssscsssssssscsssssssscssssssssscsssssscsssssscssssscssssscsssscssssssscssssssssssscsssssssscssssssssssssscssssssssscssssscsssssssscsssssssscsssssscsssssssscsssssscsssssscssssssscsssssscssssssssscssssssscsssssssscsssssssscssssssscsssssscsssssssscsssssssscsssssscsssssssscssssss" />
  </g>
  <g
     inkscape:groupmode="layer"
     id="layer3"
     inkscape:label="cheeks"
     style="opacity:1">
    <path
       style="opacity:1;fill:#f9f9f9;fill-rule:evenodd;stroke:#000000;stroke-width:0.62405372px;stroke-linecap:butt;stroke-linejoin:miter;stroke-opacity:1"
       d="M 245.4495,244.01526 C 239.23301,247.53035 235.7558,253.44699 228.262,253.39026 C 223.78694,253.35639 217.90563,250.93468 213.4495,251.39026 C 203.90347,252.36621 196.7798,258.97282 188.5745,263.10901 C 185.39477,264.71186 180.71958,265.56528 177.3245,266.48401 C 162.96601,270.36949 145.30063,261.63106 138.1995,277.85901 C 134.42392,286.48721 142.57999,293.99404 147.6995,301.01526 C 164.82798,324.50632 180.92086,316.20446 204.262,314.42151 C 208.16924,314.12306 213.53783,314.27571 217.29325,315.42151 C 224.4439,317.6032 231.66381,322.75208 238.04325,316.76526 C 242.21739,312.84802 244.81913,307.77453 250.512,306.39026 C 260.74789,303.90133 271.25796,303.12517 280.6995,298.01526 C 291.83638,291.98779 299.13834,280.60103 301.762,268.48401 C 304.01768,258.06641 301.22107,247.06218 292.5745,240.98401 C 277.92728,230.68764 259.84673,235.87441 245.4495,244.01526 z M 209.9495,260.23401 C 212.79381,260.54166 216.07612,261.69819 217.9495,263.92151 C 218.63916,264.74 218.65694,266.59037 218.262,267.60901 C 217.67725,269.11725 215.33789,269.69398 214.41825,270.95276 C 212.85018,273.0991 212.18846,275.92653 210.23075,277.67151 C 208.87698,278.87818 206.06948,278.3938 204.3245,278.01526 C 201.70476,277.44696 199.95784,275.35013 197.79325,273.98401 C 196.86773,273.3999 195.10043,274.06115 194.262,273.29651 C 193.51849,272.61846 192.91394,271.01809 193.0745,269.95276 C 193.41326,267.70513 195.88215,265.61258 197.512,264.26526 C 201.03808,261.35041 205.39363,259.74123 209.9495,260.23401 z M 243.48075,280.92151 C 243.86297,280.90658 244.23642,281.05187 244.60575,281.35901 C 247.30657,283.60507 241.2541,289.41792 240.48075,293.10901 C 240.00695,295.37033 240.67103,298.67317 239.887,300.82776 C 237.20289,308.20399 230.24272,308.57743 224.48075,304.82776 C 222.45726,303.51095 220.54288,300.60911 218.85575,298.79651 C 217.07839,296.887 211.83672,294.91048 212.91825,292.42151 C 214.70387,288.31219 222.25628,295.40853 226.262,294.76526 C 229.17524,294.29741 232.64363,291.84614 235.137,290.07776 C 237.85553,288.1497 240.80519,281.026 243.48075,280.92151 z"
       id="path2640"
       inkscape:export-filename="C:\Users\NEIL\VALENTINEKITTEN2.png"
       inkscape:export-xdpi="90"
       inkscape:export-ydpi="90"
       sodipodi:nodetypes="csssssssssssssscsssssssssscsssssssss" />
  </g>
  <g
     inkscape:groupmode="layer"
     id="layer4"
     inkscape:label="eyes and whiskers"
     style="opacity:1">
    <path
       style="opacity:1;fill:#180000;fill-opacity:1;fill-rule:evenodd;stroke:none;stroke-width:2.49621487000000020;stroke-linecap:butt;stroke-linejoin:miter;stroke-miterlimit:4;stroke-dasharray:none;stroke-opacity:1"
       d="M 282.79257,455.58211 C 265.914,468.11607 248.89852,481.02199 235.26132,497.05086 C 233.58241,499.02422 233.35684,500.76616 236.69882,502.58211 C 238.72854,503.685 238.53454,503.26363 240.66757,500.70711 C 254.16751,484.52684 275.03181,471.54919 287.91757,460.01961 C 296.0093,452.77951 289.60972,450.51973 282.79257,455.58211 z"
       id="path2649"
       sodipodi:nodetypes="csssss"
       inkscape:export-filename="C:\Users\NEIL\VALENTINEKITTEN2.png"
       inkscape:export-xdpi="90"
       inkscape:export-ydpi="90" />
    <path
       style="opacity:1;fill:#180000;fill-opacity:1;fill-rule:evenodd;stroke:none;stroke-width:2.49621487000000020;stroke-linecap:butt;stroke-linejoin:miter;stroke-miterlimit:4;stroke-dasharray:none;stroke-opacity:1"
       d="M 373.0916,445.86582 C 352.38025,452.24276 332.08547,459.49416 311.716,466.58719 C 289.93135,474.17302 271.81919,488.94787 252.18671,501.91221 C 250.86537,502.78476 254.8125,507.91482 255.5916,507.45957 C 266.13197,501.30053 291.89938,480.69982 312.8416,473.08457 C 332.75999,465.84161 353.70048,460.20862 372.72963,451.45776 C 377.99668,449.03561 378.05663,444.33711 373.0916,445.86582 z"
       id="path2651"
       sodipodi:nodetypes="cssssss"
       inkscape:export-filename="C:\Users\NEIL\VALENTINEKITTEN2.png"
       inkscape:export-xdpi="90"
       inkscape:export-ydpi="90" />
    <path
       style="opacity:1;fill:#180000;fill-opacity:1;fill-rule:evenodd;stroke:none;stroke-width:2.49621487000000020;stroke-linecap:butt;stroke-linejoin:miter;stroke-miterlimit:4;stroke-dasharray:none;stroke-opacity:1"
       d="M 309.8304,505.86092 C 290.8889,505.7936 263.932,511.48128 255.61165,518.67342 C 255.08775,519.12628 263.9015,522.60397 264.71658,522.35719 C 283.91177,516.54551 298.12006,511.67787 315.98665,512.39217 C 327.52981,512.85366 340.28199,518.75447 349.8304,517.95467 C 356.09235,517.43016 350.42787,511.28552 343.0755,509.66411 C 332.11426,507.24684 321.0806,505.9009 309.8304,505.86092 z"
       id="path2653"
       sodipodi:nodetypes="cssssss"
       inkscape:export-filename="C:\Users\NEIL\VALENTINEKITTEN2.png"
       inkscape:export-xdpi="90"
       inkscape:export-ydpi="90" />
    <path
       style="opacity:1;fill:#180000;fill-opacity:1;fill-rule:evenodd;stroke:none;stroke-width:2.49621487000000020;stroke-linecap:butt;stroke-linejoin:miter;stroke-miterlimit:4;stroke-dasharray:none;stroke-opacity:1"
       d="M 110.82848,503.462 C 137.69971,504.73762 153.77147,507.76934 173.92321,514.26258 C 182.01738,516.87066 184.91374,517.86088 198.25711,521.97064 C 199.63011,522.39353 195.66175,514.60808 191.54168,513.19553 C 171.73184,506.40379 152.17917,500.51073 130.97704,500.2659 C 124.42162,500.1902 114.14396,499.27191 111.31961,499.53314 C 105.73683,500.04951 105.20918,503.19524 110.82848,503.462 z"
       id="path2655"
       sodipodi:nodetypes="cssssss"
       inkscape:export-filename="C:\Users\NEIL\VALENTINEKITTEN2.png"
       inkscape:export-xdpi="90"
       inkscape:export-ydpi="90" />
    <path
       style="opacity:1;fill:#180000;fill-opacity:1;fill-rule:evenodd;stroke:none;stroke-width:2.49621487000000020;stroke-linecap:butt;stroke-linejoin:miter;stroke-miterlimit:4;stroke-dasharray:none;stroke-opacity:1"
       d="M 182.32891,526.63286 C 160.06501,528.15408 137.56493,531.35928 116.57891,538.88286 C 110.72269,540.98234 108.24272,548.50647 113.18716,547.36771 C 127.20916,544.13828 142.17972,537.00632 157.54059,535.35789 C 171.46871,533.86321 186.63682,533.14377 200.11016,534.75786 C 205.30122,535.37974 199.90575,527.598 194.45391,527.16411 C 190.42122,526.84316 186.37726,526.35625 182.32891,526.63286 z"
       id="path2657"
       sodipodi:nodetypes="cssssss"
       inkscape:export-filename="C:\Users\NEIL\VALENTINEKITTEN2.png"
       inkscape:export-xdpi="90"
       inkscape:export-ydpi="90" />
    <path
       style="opacity:1;fill:#180000;fill-opacity:1;fill-rule:evenodd;stroke:none;stroke-width:2.49621487000000020;stroke-linecap:butt;stroke-linejoin:miter;stroke-miterlimit:4;stroke-dasharray:none;stroke-opacity:1"
       d="M 199.85595,538.00365 C 187.81706,543.13013 175.4681,546.9198 162.86536,550.17283 C 147.70961,554.08484 136.39197,562.64385 121.6372,570.94115 C 117.42269,573.31117 109.45054,579.34607 110.35595,580.0349 C 113.88185,582.71738 118.6279,581.16617 121.8872,579.00365 C 136.78141,569.12149 144.79346,562.36465 158.4313,558.41122 C 172.1599,554.43148 183.68669,549.0753 197.13234,545.3036 C 203.25664,543.58564 204.05252,536.21663 199.85595,538.00365 z"
       id="path2659"
       sodipodi:nodetypes="csssssss"
       inkscape:export-filename="C:\Users\NEIL\VALENTINEKITTEN2.png"
       inkscape:export-xdpi="90"
       inkscape:export-ydpi="90" />
    <path
       style="opacity:1;fill:#000000;fill-rule:evenodd;stroke:#000000;stroke-width:0.62405372000000003px;stroke-linecap:butt;stroke-linejoin:miter;stroke-opacity:1"
       d="M 154.46696,433.40288 C 152.66009,433.7049 152.85487,436.83817 152.8924,437.37845 C 152.97185,438.52231 154.61334,440.72961 155.33767,441.57656 C 156.68198,443.14843 156.70254,443.20015 156.62854,444.02505 C 156.58367,444.52521 156.31766,445.35865 155.87411,445.38793 C 154.80594,445.45844 154.20323,444.62555 152.68414,442.47102 C 152.30324,441.93078 150.02031,436.22087 149.20423,440.08903 C 148.76862,442.15375 150.1474,444.06209 151.30777,445.19509 C 152.31376,446.17735 154.23302,447.12659 154.23865,448.22983 C 154.25317,451.07446 152.55888,449.69078 151.26025,448.75019 C 150.47959,448.18476 147.73178,444.33261 147.26121,445.12512 C 146.59165,446.25278 148.39945,451.06441 149.52308,451.77436 C 151.10942,452.77668 152.96972,452.7848 153.10394,453.57384 C 154.19194,459.96963 154.8814,466.7843 157.37303,472.86246 C 158.57301,475.78973 160.97651,479.93711 165.3028,479.95562 C 166.11352,479.95908 157.12021,472.61625 157.04107,454.22709 C 157.02933,451.49943 159.21201,445.17836 160.2383,445.86608 C 160.97299,446.3584 158.17614,454.00036 162.34649,469.02304 C 164.0848,475.28489 169.55714,479.41589 176.46799,479.13603 C 178.84872,479.03962 181.21674,478.05774 182.87533,476.17212 C 186.27579,472.30621 185.8873,462.47872 184.01374,458.10516 C 179.60919,447.82333 177.57845,443.07593 169.97766,440.93626 C 167.48676,440.23507 164.30271,439.86812 161.80309,440.37886 C 160.73631,440.59683 161.21201,440.89469 159.38613,440.40114 C 158.34313,440.11921 157.57112,438.65271 156.82041,437.78532 C 156.37959,437.27598 155.78039,433.18334 154.46696,433.40288 z"
       id="path3437"
       sodipodi:nodetypes="csssssssssssssssssssssssss"
       inkscape:export-filename="C:\Users\NEIL\VALENTINEKITTEN2.png"
       inkscape:export-xdpi="90"
       inkscape:export-ydpi="90" />
    <path
       style="opacity:1;fill:#000000;fill-rule:evenodd;stroke:#000000;stroke-width:0.62405372000000003px;stroke-linecap:butt;stroke-linejoin:miter;stroke-opacity:1"
       d="M 233.7935,417.39315 C 232.47141,416.6224 234.0464,421.84854 233.78329,422.7219 C 233.51295,423.61924 233.03018,425.67667 232.42517,426.35182 C 230.24456,428.78527 226.83395,427.4832 223.8193,428.0441 C 218.40229,429.05197 215.17619,432.56195 213.07183,437.39522 C 210.92262,442.33152 211.01742,446.40319 211.94759,451.38358 C 213.21102,458.14837 216.40532,465.75224 221.63368,470.27706 C 222.48633,471.01497 224.35806,472.93567 224.90894,471.93268 C 225.57232,470.72488 220.93314,465.16501 218.91554,462.41675 C 216.66271,459.34809 214.83257,454.1002 214.1595,450.1805 C 213.66285,447.28807 213.96236,442.17672 215.28613,439.64604 C 217.6601,435.10763 219.95159,433.70038 220.80729,434.13082 C 221.39306,434.42549 219.28887,443.48435 219.85143,449.14734 C 220.55378,456.19812 226.38301,469.65449 233.82052,468.81348 C 238.33734,468.30274 242.96421,464.20636 243.70739,458.41264 C 244.77457,450.09317 243.51049,442.45967 240.45323,434.9118 C 240.22129,434.33917 242.47233,433.91285 243.24191,433.54937 C 245.89163,432.29787 248.19946,428.63804 247.82957,425.8474 C 247.7413,425.18143 245.89155,425.03705 245.0499,425.90507 C 244.25935,426.72039 243.40321,429.17422 242.4684,429.85043 C 241.52276,430.53445 239.20039,432.06934 238.39721,431.37891 C 237.07648,430.24358 240.39027,428.96707 240.93771,427.75603 C 241.55217,426.39673 242.12501,423.99708 241.92421,422.47857 C 241.8074,421.59528 240.91256,419.03561 240.13567,419.16856 C 239.01793,419.35984 239.72689,423.64421 239.2106,424.77967 C 238.43405,426.48748 237.10297,427.63501 235.66302,428.41152 C 235.15436,428.68582 234.87316,427.60986 235.26153,427.04275 C 237.95648,423.10746 236.08689,418.73013 233.7935,417.39315 z"
       id="path3439"
       sodipodi:nodetypes="csssssssssssssssssssssssssss"
       inkscape:export-filename="C:\Users\NEIL\VALENTINEKITTEN2.png"
       inkscape:export-xdpi="90"
       inkscape:export-ydpi="90" />
  </g>
</svg>
